# xmcd
# 
# Track frame offsets:
#     150
#     16694
#     39878
#     71299
#     98027
#     124390
#     152611
# 
# Disc length: 2268
# 
# Revision: 0
# Processed by: cddbd v1.5.2PL0 Copyright (c) Steve Scherf et al.
# Submitted via: BonkEnc v1.0.5
# 
DISCID=4708da07
DTITLE=Cascada - What hurts the most [CDS)
DYEAR=2007
DGENRE=Eurodance
TTITLE0=What hurts the most (Radio Edit)
TTITLE1=What hurts the most (Extended Mix)
TTITLE2=What hurts the most (Spencer and Hills Mix)
TTITLE3=What hurts the most (K-Klass Remix)
TTITLE4=What hurts the most (Ultrabeat Remix)
TTITLE5=What hurts the most (Darren Styles Remix)
TTITLE6=What hurts the most (Yanou's Candlelight Mix)
EXTD=
EXTT0=
EXTT1=
EXTT2=
EXTT3=
EXTT4=
EXTT5=
EXTT6=
PLAYORDER=
